<?xml version="1.0" encoding="UTF-8"?>
<svg id="Layer_2" xmlns="http://www.w3.org/2000/svg" version="1.1" viewBox="0 0 469.3 97.8">
  <!-- Generator: Adobe Illustrator 29.2.1, SVG Export Plug-In . SVG Version: 2.1.0 Build 116)  -->
  <defs>
    <style>
      .st0 {
        fill: #f4f4f4;
      }
    </style>
  </defs>
  <g id="Layer_1-2">
    <g>
      <path class="st0" d="M64,8.1l-9.5,18.5c-4.9-4.1-10.1-6.1-15.8-6.1s-4.8.7-7,2.1-3.2,3.2-3.2,5.6.7,3.1,2,4.4c1.3,1.3,2.6,2.2,3.8,2.7,1.2.5,2.8,1,4.8,1.7l6.1,1.8c7.1,2.1,12.7,5.1,16.7,8.9,4,3.8,6,9.2,6,16.1,0,11.1-3.2,19.3-9.5,24.7-6.8,5.8-15.5,8.6-26,8.6S10,93.7,0,86.7l10.2-19.2c7.2,6.3,14.3,9.5,21.2,9.5s5.8-.8,8.1-2.4,3.5-3.9,3.5-6.9-4.6-7.6-13.7-10.2c-.3,0-.6-.2-.7-.2-4.4-1.2-7.8-2.3-10.3-3.4-2.5-1-5-2.5-7.5-4.4-2.5-1.9-4.3-4.3-5.3-7.2s-1.6-6.5-1.6-10.8c0-9.2,3-16.7,8.9-22.3C18.4,3.4,26,.6,35.3.6s9.5.7,14.8,2.1c5.2,1.4,9.9,3.2,13.9,5.5h0Z"/>
      <path class="st0" d="M90.1,5.9c7.7-3.9,16-5.9,24.8-5.9s17.1,2,24.8,5.9c7.7,3.9,13.9,9.6,18.7,16.8,4.8,7.3,7.2,15.4,7.2,24.4,0,14.8-4.8,27-14.3,36.4-9.5,9.4-21.7,14.2-36.4,14.2s-26.9-4.7-36.4-14.2c-9.5-9.4-14.3-21.6-14.3-36.4s2.4-17.1,7.2-24.4c4.8-7.3,11-12.9,18.7-16.8ZM133.1,30.4c-5.1-4.9-11.2-7.3-18.2-7.3s-13.1,2.4-18.2,7.3-7.7,10.5-7.7,16.9,2.5,14.3,7.5,19.5,11.2,7.8,18.4,7.8,13.3-2.6,18.4-7.8c5-5.2,7.5-11.7,7.5-19.5s-2.6-12-7.7-16.9h0Z"/>
      <path class="st0" d="M209.2,3v71.5h28.6v20.2h-52.4V3h23.8Z"/>
      <path class="st0" d="M290.4,78.8h-32.8l-6.3,15.9h-25.3L261.2,3h26l34.5,91.7h-25.4l-6-15.9h0ZM284,60.6l-9.7-29.2h-.2l-9.9,29.2h19.8Z"/>
      <path class="st0" d="M389.4,57.2l28.8,37.6h-29.7l-22.5-35.3h-.2v35.3h-23.8V3h35.6c9.6,0,17.3,2.3,23.1,7.1,5.8,4.7,8.8,11.8,8.8,21.2s-1.8,12.2-5.3,17c-3.5,4.8-8.5,7.7-14.8,8.9h0ZM365.8,21.3v22.9h2.3c11,0,16.5-3.8,16.5-11.4s-5.5-11.4-16.5-11.4c0,0-2.3,0-2.3,0Z"/>
      <path class="st0" d="M411.7,50.7L377.9,3h28.6l17.1,24.9,17.1-24.9h28.6l-33.8,47.7v44h-23.8v-44h0Z"/>
    </g>
  </g>
  <circle class="st0" cx="114.9" cy="48.9" r="20"/>
</svg>