<?xml version="1.0" encoding="UTF-8"?>
<svg id="Layer_2" data-name="Layer 2" xmlns="http://www.w3.org/2000/svg" viewBox="0 0 165.61 97.77">
  <defs>
    <style>
      .cls-1 {
        fill: #f4f4f4;
      }
    </style>
  </defs>
  <g id="Layer_2-2" data-name="Layer 2">
    <path class="cls-1" d="M63.95,8.15l-9.49,18.48c-4.86-4.05-10.13-6.08-15.81-6.08-2.51,0-4.84.69-6.99,2.07s-3.22,3.24-3.22,5.59c0,1.62.67,3.08,2.01,4.38,1.34,1.3,2.59,2.19,3.77,2.67,1.17.49,2.78,1.05,4.8,1.7l6.08,1.82c7.13,2.11,12.69,5.09,16.66,8.94,3.97,3.85,5.96,9.22,5.96,16.11,0,11.11-3.16,19.33-9.48,24.69-6.81,5.76-15.49,8.63-26.02,8.63-11.51,0-22.25-3.48-32.22-10.46l10.21-19.21c7.21,6.32,14.27,9.48,21.16,9.48,3.08,0,5.78-.79,8.09-2.37s3.46-3.87,3.46-6.87c0-4.21-4.58-7.62-13.74-10.21-.33-.08-.57-.16-.73-.24-4.38-1.21-7.82-2.35-10.34-3.4-2.51-1.05-5.03-2.53-7.54-4.44-2.51-1.9-4.3-4.32-5.35-7.24s-1.58-6.52-1.58-10.82c0-9.24,2.96-16.68,8.88-22.31C18.43,3.43,26.01.61,35.25.61c4.62,0,9.54.69,14.77,2.07,5.23,1.38,9.87,3.2,13.92,5.47h.01Z"/>
    <path class="cls-1" d="M90.09,5.9c7.7-3.93,15.97-5.9,24.81-5.9s17.1,1.97,24.81,5.9c7.7,3.93,13.94,9.55,18.73,16.84,4.78,7.3,7.17,15.44,7.17,24.44,0,14.83-4.76,26.98-14.29,36.42-9.53,9.45-21.67,14.17-36.42,14.17s-26.89-4.72-36.42-14.17c-9.53-9.44-14.29-21.58-14.29-36.42,0-9,2.39-17.15,7.17-24.44,4.78-7.3,11.02-12.91,18.73-16.84ZM133.14,30.4c-5.11-4.86-11.19-7.29-18.24-7.29s-13.13,2.43-18.24,7.29-7.66,10.5-7.66,16.9c0,7.78,2.51,14.29,7.54,19.52s11.15,7.84,18.36,7.84,13.33-2.61,18.36-7.84c5.03-5.23,7.54-11.73,7.54-19.52,0-6.4-2.55-12.04-7.66-16.9h0Z"/>
    <circle class="cls-1" cx="114.9" cy="48.88" r="20"/>
  </g>
</svg>